<svg id="Layer_1" data-name="Layer 1" xmlns="http://www.w3.org/2000/svg" viewBox="0 0 21.9 20.65"><defs><style>.cls-1{fill:#28b4be;}</style></defs><title>chat</title><path class="cls-1" d="M18.26.55H3.87A3.75,3.75,0,0,0,.11,4.3v8.13a3.75,3.75,0,0,0,3.75,3.75h.31v5l5-5h9.08A3.75,3.75,0,0,0,22,12.44V4.3A3.75,3.75,0,0,0,18.26.55ZM6.3,9.9A1.15,1.15,0,1,1,7.43,8.75,1.13,1.13,0,0,1,6.3,9.9Zm4.77,0A1.15,1.15,0,1,1,12.2,8.75,1.13,1.13,0,0,1,11.06,9.9Zm4.77,0A1.15,1.15,0,1,1,17,8.75,1.13,1.13,0,0,1,15.83,9.9Z" transform="translate(-0.11 -0.55)"/></svg>