<svg id="Layer_1" data-name="Layer 1" xmlns="http://www.w3.org/2000/svg" viewBox="0 0 47.92 39.97"><defs><style>.cls-1{fill:#28afb9;}</style></defs><title>logo</title><path class="cls-1" d="M48.46,3.58V.35H26.94A2.34,2.34,0,0,0,24.46,2.5c0,.35,0,.51,0,.77a1.89,1.89,0,0,1-2.12,1.92H.54v9.59H16.44V18H.54v9.59H16.44v3.18H.54v9.59H22.36a1.89,1.89,0,0,0,2.12-1.92c0-.25,0-.41,0-.77A2.34,2.34,0,0,1,27,35.49h21.5V32.26H38.1V29.13H48.46V19.49H38.1V16.35H48.46V6.72H38.1V3.58ZM3.77,8.42H8.48v3.14H3.77Zm0,12.77H8.48v3.14H3.77ZM3.77,34H8.48V37.1H3.77Zm31.1-1.7H26.94a2.34,2.34,0,0,0-2.49,2.15c0,.35,0,.51,0,.77a1.89,1.89,0,0,1-2.12,1.92H11.71V34H22.36A1.89,1.89,0,0,0,24.48,32c0-.25,0-.41,0-.77A2.34,2.34,0,0,1,27,29.13h7.91ZM45.23,25.9H26.94A2.34,2.34,0,0,0,24.46,28c0,.35,0,.51,0,.77a1.89,1.89,0,0,1-2.12,1.92H19.67V27.56h2.68a1.89,1.89,0,0,0,2.12-1.92c0-.25,0-.41,0-.77A2.34,2.34,0,0,1,27,22.72H45.23ZM34.87,19.49H26.94a2.34,2.34,0,0,0-2.49,2.15c0,.35,0,.51,0,.77a1.89,1.89,0,0,1-2.12,1.92H11.71V21.19H22.36a1.89,1.89,0,0,0,2.12-1.92c0-.25,0-.41,0-.77A2.34,2.34,0,0,1,27,16.35h7.91Zm10.36-6.37H26.94a2.34,2.34,0,0,0-2.49,2.15c0,.35,0,.51,0,.77A1.89,1.89,0,0,1,22.34,18H19.67V14.78h2.68a1.89,1.89,0,0,0,2.12-1.92c0-.25,0-.41,0-.77A2.34,2.34,0,0,1,27,9.95H45.23ZM34.87,6.72H26.94a2.34,2.34,0,0,0-2.49,2.15c0,.35,0,.51,0,.77a1.89,1.89,0,0,1-2.12,1.92H11.71V8.42H22.36A1.89,1.89,0,0,0,24.48,6.5c0-.25,0-.41,0-.77A2.34,2.34,0,0,1,27,3.58h7.91Z" transform="translate(-0.54 -0.35)"/></svg>