<svg id="Layer_1" data-name="Layer 1" xmlns="http://www.w3.org/2000/svg" viewBox="0 0 129.39 28.34"><defs><style>.cls-1{fill:#231f20;}</style></defs><title>riva-logo</title><path class="cls-1" d="M102.84,28.17l2.61-5.32H120.1l2.64,5.32h6.75L115.21-.17h-5.06l-14,28.34ZM112.7,8.05l4.56,9.11h-9Z" transform="translate(-0.11 0.17)"/><rect class="cls-1" x="44.23" width="6.1" height="28.34"/><polygon class="cls-1" points="85.77 0 77.07 19.42 68.09 0 61.28 0 74.65 28.34 79.4 28.34 92.53 0 85.77 0"/><path class="cls-1" d="M6.25,28.17V18h9.37l8.16,10.22h8L23.51,17.6a9.64,9.64,0,0,0,4-1.67,8.67,8.67,0,0,0,3.4-7.09,9.39,9.39,0,0,0-1.45-5.15A8.67,8.67,0,0,0,22-.13c-.67,0-1.34,0-2,0H.11V28.17Zm0-22.58H20.1a5.77,5.77,0,0,1,3.22.55,3.23,3.23,0,0,1,1.21,2.55,4.07,4.07,0,0,1-.4,1.71c-.57,1.12-1.61,1.56-4,1.69-.56,0-1.08,0-1.63,0H6.25Z" transform="translate(-0.11 0.17)"/></svg>